<svg xmlns="http://www.w3.org/2000/svg" xmlns:xlink="http://www.w3.org/1999/xlink" width="500" zoomAndPan="magnify" viewBox="0 0 375 374.999991" height="500" preserveAspectRatio="xMidYMid meet" version="1.0"><path fill="#ff9900" d="M 211.652344 244.824219 C 184.652344 233.191406 138.003906 236.398438 113.414062 252.445312 C 104.457031 241.347656 107.53125 214.605469 117.824219 211.53125 C 110.742188 184.386719 124.910156 126.355469 90.558594 124.484375 C 76.792969 139.195312 68.238281 106.566406 90.15625 114.457031 C 135.464844 118.820312 119.667969 175.238281 130.253906 208.722656 C 168.214844 200.433594 231.832031 218.617188 218.867188 228.777344 C 181.179688 218.617188 134.664062 206.449219 117.824219 241.210938 C 136.535156 222.492188 205.769531 225.835938 211.652344 244.824219 Z M 211.652344 244.824219 " fill-opacity="1" fill-rule="nonzero"/><path fill="#ff9900" d="M 208.84375 210.328125 C 238.917969 185.054688 306.742188 111.40625 127.445312 147.351562 C 259.367188 140.128906 242.125 151.363281 208.84375 210.328125 Z M 208.84375 210.328125 " fill-opacity="1" fill-rule="nonzero"/><path fill="#ff9900" d="M 231.296875 170.214844 C 201.894531 160.453125 166.476562 156.710938 134.261719 162.996094 C 164.605469 160.855469 199.757812 168.34375 228.089844 177.835938 Z M 231.296875 170.214844 " fill-opacity="1" fill-rule="nonzero"/><path fill="#ff9900" d="M 221.675781 188.664062 L 217.265625 197.089844 C 197.347656 184.253906 169.816406 178.636719 141.480469 180.242188 C 162.464844 169.414062 189.0625 173.421875 221.675781 188.667969 Z M 221.675781 188.664062 " fill-opacity="1" fill-rule="nonzero"/><path fill="#ff9900" d="M 229.695312 149.757812 L 218.066406 144.542969 C 201.226562 164.867188 192.40625 185.992188 186.789062 207.921875 C 197.484375 187.328125 209.378906 168.746094 229.695312 149.757812 Z M 229.695312 149.757812 " fill-opacity="1" fill-rule="nonzero"/><path fill="#ff9900" d="M 205.636719 142.539062 L 195.613281 142.136719 C 180.375 160.589844 173.960938 179.441406 173.960938 198.695312 C 179.707031 179.976562 188.660156 161.257812 205.636719 142.539062 Z M 205.636719 142.539062 " fill-opacity="1" fill-rule="nonzero"/><path fill="#ff9900" d="M 177.570312 142.9375 L 167.945312 143.339844 C 161.796875 159.25 157.253906 174.359375 157.921875 191.070312 C 160.058594 174.226562 167.8125 159.382812 177.570312 142.9375 Z M 177.570312 142.9375 " fill-opacity="1" fill-rule="nonzero"/><path stroke-linecap="round" transform="matrix(-0.141765, 0, 0, 0.14182, 217.264591, 164.973359)" fill-opacity="1" fill="#ff9900" fill-rule="nonzero" stroke-linejoin="round" d="M 102.330013 514.650769 C 85.30135 514.898663 69.429975 519.74637 56.699809 529.607047 C 19.666599 558.362765 23.138462 618.876472 64.415061 664.709339 C 105.719213 710.542206 169.287379 724.424277 206.320589 695.668559 C 243.381353 666.940386 239.909489 606.399135 198.605337 560.566268 C 171.519291 530.488449 134.816735 514.182525 102.330013 514.650769 Z M 131.45509 572.052028 C 145.673197 571.831678 161.737454 579.543939 173.613431 593.756535 C 191.689164 615.378411 193.232215 643.913777 177.030186 657.465322 C 160.800602 671.016867 132.943031 664.488989 114.867298 642.867113 C 96.791565 621.245238 95.276069 592.682327 111.478098 579.130782 C 117.071656 574.448338 124.015383 572.162204 131.45509 572.052028 Z M 131.45509 572.052028 " stroke="#fffdff" stroke-width="9.127" stroke-opacity="1" stroke-miterlimit="4"/><path stroke-linecap="round" transform="matrix(-0.141765, 0, 0, 0.14182, 217.264591, 164.973359)" fill-opacity="1" fill="#ff9900" fill-rule="nonzero" stroke-linejoin="round" d="M 607.210594 514.650769 C 590.181931 514.898663 574.310555 519.74637 561.580389 529.607047 C 524.54718 558.362765 528.019043 618.876472 569.295641 664.709339 C 610.599794 710.542206 674.16796 724.424277 711.201169 695.668559 C 748.261934 666.940386 744.79007 606.399135 703.485917 560.566268 C 676.399872 530.488449 639.697316 514.182525 607.210594 514.650769 Z M 636.33567 572.052028 C 650.553778 571.831678 666.618035 579.543939 678.494012 593.756535 C 696.569745 615.378411 698.112795 643.913777 681.910766 657.465322 C 665.681183 671.016867 637.823612 664.488989 619.747879 642.867113 C 601.672145 621.245238 600.156649 592.682327 616.358679 579.130782 C 621.952236 574.448338 628.895963 572.162204 636.33567 572.052028 Z M 636.33567 572.052028 " stroke="#fffdff" stroke-width="9.127" stroke-opacity="1" stroke-miterlimit="4"/></svg>