<?xml version="1.0" standalone="no"?>
<!DOCTYPE svg PUBLIC "-//W3C//DTD SVG 20010904//EN"
 "http://www.w3.org/TR/2001/REC-SVG-20010904/DTD/svg10.dtd">
<svg version="1.0" xmlns="http://www.w3.org/2000/svg"
 width="980.000000pt" height="720.000000pt" viewBox="0 0 980.000000 720.000000"
 preserveAspectRatio="xMidYMid meet">

<g transform="translate(0.000000,720.000000) scale(0.100000,-0.100000)"
fill="#000000" stroke="none">
<path d="M595 7189 c-149 -22 -276 -88 -392 -204 -67 -68 -89 -99 -127 -176
-175 -363 -30 -777 331 -945 147 -69 -247 -64 4494 -64 4215 0 4297 0 4371 19
358 92 586 451 514 811 -11 53 -34 121 -62 179 -38 77 -60 108 -127 175 -124
123 -242 183 -401 205 -96 14 -8509 13 -8601 0z"/>
<path d="M560 4285 c-181 -36 -342 -147 -446 -306 -181 -277 -140 -646 97
-876 67 -66 110 -95 203 -139 145 -69 -78 -65 3141 -62 l2910 3 80 27 c298
101 485 359 485 668 0 308 -188 567 -485 668 l-80 27 -2920 2 c-2377 1 -2932
-1 -2985 -12z"/>
<path d="M538 1385 c-299 -73 -516 -333 -535 -640 -20 -327 194 -626 512 -717
l80 -23 1870 0 c2098 0 1916 -7 2080 75 187 92 323 263 371 465 24 106 16 275
-20 380 -78 229 -259 396 -493 456 -74 18 -125 19 -1942 18 -1550 -1 -1876 -3
-1923 -14z"/>
</g>
</svg>
