<svg xmlns="http://www.w3.org/2000/svg" xmlns:xlink="http://www.w3.org/1999/xlink" width="500" zoomAndPan="magnify" viewBox="0 0 375 374.999991" height="500" preserveAspectRatio="xMidYMid meet" version="1.0"><defs><g/><clipPath id="id1"><path d="M 18 274 L 283 274 L 283 335 L 18 335 Z M 18 274 " clip-rule="nonzero"/></clipPath><clipPath id="id2"><path d="M 13.742188 295.230469 L 291.761719 271.855469 L 295.089844 311.464844 L 17.074219 334.839844 Z M 13.742188 295.230469 " clip-rule="nonzero"/></clipPath><clipPath id="id3"><path d="M 13.742188 295.230469 L 291.761719 271.855469 L 295.089844 311.464844 L 17.074219 334.839844 Z M 13.742188 295.230469 " clip-rule="nonzero"/></clipPath><clipPath id="id4"><path d="M 13.742188 295.230469 L 291.761719 271.855469 L 295.089844 311.464844 L 17.074219 334.839844 Z M 13.742188 295.230469 " clip-rule="nonzero"/></clipPath><clipPath id="id5"><path d="M 25 307 L 79 307 L 79 322 L 25 322 Z M 25 307 " clip-rule="nonzero"/></clipPath><clipPath id="id6"><path d="M 13.742188 295.230469 L 291.761719 271.855469 L 295.089844 311.464844 L 17.074219 334.839844 Z M 13.742188 295.230469 " clip-rule="nonzero"/></clipPath><clipPath id="id7"><path d="M 13.742188 295.230469 L 291.761719 271.855469 L 295.089844 311.464844 L 17.074219 334.839844 Z M 13.742188 295.230469 " clip-rule="nonzero"/></clipPath><clipPath id="id8"><path d="M 13.742188 295.230469 L 291.761719 271.855469 L 295.089844 311.464844 L 17.074219 334.839844 Z M 13.742188 295.230469 " clip-rule="nonzero"/></clipPath><clipPath id="id9"><path d="M 268 282 L 292 282 L 292 311 L 268 311 Z M 268 282 " clip-rule="nonzero"/></clipPath><clipPath id="id10"><path d="M 13.742188 295.230469 L 291.761719 271.855469 L 295.089844 311.464844 L 17.074219 334.839844 Z M 13.742188 295.230469 " clip-rule="nonzero"/></clipPath><clipPath id="id11"><path d="M 13.742188 295.230469 L 291.761719 271.855469 L 295.089844 311.464844 L 17.074219 334.839844 Z M 13.742188 295.230469 " clip-rule="nonzero"/></clipPath><clipPath id="id12"><path d="M 13.742188 295.230469 L 291.761719 271.855469 L 295.089844 311.464844 L 17.074219 334.839844 Z M 13.742188 295.230469 " clip-rule="nonzero"/></clipPath></defs><path fill="#ff9900" d="M 227.570312 282.207031 C 189.617188 265.890625 124.050781 270.390625 89.480469 292.898438 C 76.894531 277.332031 81.214844 239.816406 95.683594 235.5 C 85.722656 197.425781 105.640625 116.019531 57.355469 113.390625 C 38.003906 134.023438 25.980469 88.257812 56.792969 99.324219 C 120.476562 105.445312 98.273438 184.589844 113.15625 231.5625 C 166.511719 219.933594 255.941406 245.441406 237.714844 259.699219 C 184.734375 245.441406 119.355469 228.375 95.683594 277.140625 C 121.984375 250.882812 219.304688 255.570312 227.570312 282.207031 Z M 227.570312 282.207031 " fill-opacity="1" fill-rule="nonzero"/><path fill="#ff9900" d="M 223.625 233.816406 C 265.894531 198.363281 361.238281 95.046875 109.207031 145.46875 C 294.640625 135.339844 270.40625 151.09375 223.625 233.816406 Z M 223.625 233.816406 " fill-opacity="1" fill-rule="nonzero"/><path fill="#ff9900" d="M 255.1875 177.542969 C 213.855469 163.851562 164.070312 158.597656 118.789062 167.414062 C 161.4375 164.414062 210.851562 174.917969 250.679688 188.234375 Z M 255.1875 177.542969 " fill-opacity="1" fill-rule="nonzero"/><path fill="#ff9900" d="M 241.660156 203.425781 L 235.460938 215.242188 C 207.46875 197.238281 168.765625 189.359375 128.933594 191.609375 C 158.433594 176.417969 195.820312 182.042969 241.664062 203.429688 Z M 241.660156 203.425781 " fill-opacity="1" fill-rule="nonzero"/><path fill="#ff9900" d="M 252.933594 148.84375 L 236.589844 141.527344 C 212.917969 170.039062 200.515625 199.675781 192.625 230.4375 C 207.65625 201.554688 224.375 175.480469 252.933594 148.84375 Z M 252.933594 148.84375 " fill-opacity="1" fill-rule="nonzero"/><path fill="#ff9900" d="M 219.117188 138.714844 L 205.023438 138.152344 C 183.605469 164.039062 174.589844 190.484375 174.589844 217.496094 C 182.667969 191.238281 195.253906 164.976562 219.117188 138.714844 Z M 219.117188 138.714844 " fill-opacity="1" fill-rule="nonzero"/><path fill="#ff9900" d="M 179.664062 139.277344 L 166.136719 139.839844 C 157.492188 162.160156 151.105469 183.355469 152.042969 206.804688 C 155.050781 183.167969 165.949219 162.347656 179.660156 139.277344 Z M 179.664062 139.277344 " fill-opacity="1" fill-rule="nonzero"/><path stroke-linecap="round" transform="matrix(-0.199273, 0, 0, 0.198951, 235.460893, 170.190164)" fill-opacity="1" fill="#ff9900" fill-rule="nonzero" stroke-linejoin="round" d="M 102.32487 514.658345 C 85.309893 514.893956 69.431861 519.743607 56.709833 529.619619 C 19.680695 558.364113 23.130737 618.87677 64.433221 664.703033 C 105.716104 710.529296 169.287038 724.430322 206.335778 695.685828 C 243.364916 666.9217 239.914875 606.389408 198.61239 560.563145 C 171.521724 530.483524 134.825828 514.187124 102.32487 514.658345 Z M 131.454197 572.049162 C 145.685618 571.833186 161.740072 579.549433 173.619192 593.744972 C 191.692705 615.362245 193.241303 643.910397 177.010426 657.458007 C 160.799152 671.025251 132.943988 664.487057 114.870475 642.869783 C 96.77736 621.25251 95.267967 592.684724 111.479241 579.11748 C 117.065956 574.464171 124.005244 572.166967 131.454197 572.049162 Z M 131.454197 572.049162 " stroke="#fffdff" stroke-width="9.127" stroke-opacity="1" stroke-miterlimit="4"/><path stroke-linecap="round" transform="matrix(-0.199273, 0, 0, 0.198951, 235.460893, 170.190164)" fill-opacity="1" fill="#ff9900" fill-rule="nonzero" stroke-linejoin="round" d="M 607.207071 514.658345 C 590.192094 514.893956 574.314062 519.743607 561.592034 529.619619 C 524.543294 558.364113 528.012938 618.87677 569.29582 664.703033 C 610.598305 710.529296 674.169239 724.430322 711.21798 695.685828 C 748.247118 666.9217 744.797076 606.389408 703.494591 560.563145 C 676.403925 530.483524 639.70803 514.187124 607.207071 514.658345 Z M 636.336398 572.049162 C 650.567819 571.833186 666.622273 579.549433 678.481791 593.744972 C 696.574906 615.362245 698.103902 643.910397 681.892627 657.458007 C 665.681353 671.025251 637.826189 664.487057 619.733074 642.869783 C 601.659561 621.25251 600.150168 592.684724 616.361442 579.11748 C 621.948157 574.464171 628.887445 572.166967 636.336398 572.049162 Z M 636.336398 572.049162 " stroke="#fffdff" stroke-width="9.127" stroke-opacity="1" stroke-miterlimit="4"/><g clip-path="url(#id1)"><g clip-path="url(#id2)"><g clip-path="url(#id3)"><g clip-path="url(#id4)"><path fill="#f39200" d="M 20.042969 333.917969 C 35.777344 324.105469 54.796875 320.550781 72.988281 318.574219 C 92.578125 316.421875 112.257812 316.054688 131.925781 316.1875 C 151.820312 316.359375 171.699219 316.976562 191.613281 316.699219 C 201.511719 316.539062 211.445312 316.09375 221.347656 315.316406 C 230.636719 314.59375 240.035156 313.859375 249.226562 311.96875 C 258.472656 310.074219 267.59375 306.679688 274.214844 299.699219 C 280.007812 293.570312 283.820312 284.644531 281.371094 276.304688 C 280.347656 272.8125 274.824219 274.117188 275.121094 277.667969 C 275.8125 285.207031 273.382812 291.835938 267.914062 297.101562 C 261.765625 303.035156 253.089844 305.664062 244.953125 307.355469 C 226.453125 311.089844 207.378906 311.96875 188.535156 312.265625 C 150.285156 312.800781 111.847656 309.832031 73.761719 314.375 C 54.351562 316.621094 34.851562 320.496094 18.765625 332.128906 C 17.597656 332.953125 18.8125 334.691406 20.042969 333.917969 Z M 20.042969 333.917969 " fill-opacity="1" fill-rule="nonzero"/></g></g></g></g><g clip-path="url(#id5)"><g clip-path="url(#id6)"><g clip-path="url(#id7)"><g clip-path="url(#id8)"><path fill="#f39200" d="M 26.390625 320.984375 C 42.546875 313.535156 59.652344 310.644531 77.257812 309.050781 C 78.210938 308.972656 78.410156 307.335938 77.335938 307.3125 C 59.5 306.1875 41.507812 311.890625 25.9375 320.292969 C 25.617188 320.488281 25.957031 321.1875 26.390625 320.984375 Z M 26.390625 320.984375 " fill-opacity="1" fill-rule="nonzero"/></g></g></g></g><g clip-path="url(#id9)"><g clip-path="url(#id10)"><g clip-path="url(#id11)"><g clip-path="url(#id12)"><path fill="#f39200" d="M 268.523438 310.402344 C 274.882812 308.972656 280.554688 305.421875 284.640625 300.441406 C 286.738281 297.921875 288.46875 295.09375 289.566406 292.039062 C 290.488281 289.617188 292.207031 285.28125 290.328125 283.035156 C 289.453125 281.992188 288.097656 281.9375 287.164062 282.910156 C 285.398438 284.679688 285.984375 288.316406 285.398438 290.714844 C 284.726562 293.453125 283.652344 296.058594 282.222656 298.46875 C 279 303.710938 274.101562 307.753906 268.308594 309.859375 C 267.921875 309.949219 268.136719 310.488281 268.523438 310.402344 Z M 268.523438 310.402344 " fill-opacity="1" fill-rule="nonzero"/></g></g></g></g><g fill="#000000" fill-opacity="1"><g transform="translate(109.988672, 121.523557)"><g><path d="M 18.25 -21.515625 C 18.332031 -21.398438 18.441406 -21.265625 18.578125 -21.109375 L 18.953125 -20.625 C 19.296875 -20.1875 19.570312 -19.820312 19.78125 -19.53125 C 20.5 -18.613281 21.125 -17.78125 21.65625 -17.03125 C 23.15625 -14.789062 24.085938 -12.816406 24.453125 -11.109375 L 24.484375 -10.890625 C 25.273438 -6.566406 22.46875 -3.820312 16.0625 -2.65625 C 15.28125 -2.519531 14.453125 -2.40625 13.578125 -2.3125 L 13.25 -2.296875 C 10.039062 -1.972656 7.375 -2.5 5.25 -3.875 C 3.78125 -4.800781 2.289062 -6.4375 0.78125 -8.78125 C 0.21875 -9.613281 -0.328125 -10.601562 -0.859375 -11.75 L -1.515625 -13.296875 L -2.15625 -14.890625 L -2.234375 -15.0625 L -2.3125 -15.265625 L -2.34375 -15.4375 C -2.363281 -15.539062 -2.375 -15.640625 -2.375 -15.734375 C -2.363281 -16.117188 -2.070312 -16.398438 -1.5 -16.578125 L -1.375 -16.609375 C -0.9375 -16.679688 -0.59375 -16.570312 -0.34375 -16.28125 C -0.25 -16.1875 -0.15625 -16.046875 -0.0625 -15.859375 L 0.078125 -15.625 L 0.203125 -15.453125 C 0.578125 -14.816406 1.097656 -13.914062 1.765625 -12.75 L 2.5 -11.421875 L 3.28125 -10.046875 C 4.851562 -7.523438 6.679688 -5.804688 8.765625 -4.890625 C 9.421875 -4.609375 10.082031 -4.394531 10.75 -4.25 C 11.507812 -4.101562 12.1875 -4.082031 12.78125 -4.1875 L 12.890625 -4.21875 C 15.316406 -4.726562 16.335938 -6.046875 15.953125 -8.171875 L 15.875 -8.53125 C 15.125 -11.59375 11.695312 -16.546875 5.59375 -23.390625 C 5.132812 -23.878906 4.347656 -24.835938 3.234375 -26.265625 C 1.984375 -27.804688 0.738281 -29.390625 -0.5 -31.015625 C -3.84375 -35.453125 -5.941406 -38.53125 -6.796875 -40.25 C -7.347656 -41.4375 -7.71875 -42.535156 -7.90625 -43.546875 C -8.375 -46.128906 -7.644531 -48.257812 -5.71875 -49.9375 C -4.164062 -51.269531 -2.085938 -52.171875 0.515625 -52.640625 C 1.296875 -52.785156 2.125 -52.890625 3 -52.953125 C 4.445312 -53.046875 5.742188 -52.710938 6.890625 -51.953125 C 9.296875 -50.378906 11.035156 -47.894531 12.109375 -44.5 L 12.171875 -44.375 L 12.203125 -44.203125 C 12.210938 -44.171875 12.222656 -44.128906 12.234375 -44.078125 C 12.242188 -44.023438 12.25 -43.960938 12.25 -43.890625 C 12.195312 -43.609375 11.988281 -43.429688 11.625 -43.359375 L 11.5625 -43.359375 C 11.363281 -43.316406 11.179688 -43.378906 11.015625 -43.546875 C 10.972656 -43.585938 10.929688 -43.671875 10.890625 -43.796875 L 10.8125 -43.90625 L 10.765625 -44.015625 C 10.609375 -44.296875 10.421875 -44.65625 10.203125 -45.09375 L 9.703125 -46.21875 C 9.265625 -47.082031 8.828125 -47.78125 8.390625 -48.3125 C 7.921875 -48.851562 7.328125 -49.421875 6.609375 -50.015625 C 5.179688 -50.992188 3.523438 -51.375 1.640625 -51.15625 C 1.421875 -51.125 1.207031 -51.085938 1 -51.046875 C 0.5625 -50.972656 0.144531 -50.867188 -0.25 -50.734375 C -0.457031 -50.660156 -0.660156 -50.585938 -0.859375 -50.515625 C -0.929688 -50.484375 -1 -50.453125 -1.0625 -50.421875 L -1.140625 -50.375 L -1.203125 -50.359375 C -1.929688 -49.953125 -2.414062 -49.394531 -2.65625 -48.6875 C -2.769531 -48.363281 -2.796875 -48.039062 -2.734375 -47.71875 C -2.679688 -47.4375 -2.546875 -47.160156 -2.328125 -46.890625 L -1.421875 -45.9375 L -0.5 -44.96875 C 0.207031 -44.226562 0.785156 -43.59375 1.234375 -43.0625 C 1.804688 -42.3125 2.578125 -41.3125 3.546875 -40.0625 L 4.6875 -38.546875 L 5.84375 -37.0625 L 10.53125 -31.21875 L 15.203125 -25.375 L 16.734375 -23.4375 C 17.347656 -22.695312 17.851562 -22.054688 18.25 -21.515625 Z M 18.25 -21.515625 "/></g></g></g><g fill="#000000" fill-opacity="1"><g transform="translate(140.959717, 115.90087)"><g><path d="M 14.453125 -21.34375 C 14.179688 -22.769531 13.976562 -23.988281 13.84375 -25 C 13.40625 -28.257812 12.15625 -31.613281 10.09375 -35.0625 C 9.425781 -36.164062 8.609375 -36.34375 7.640625 -35.59375 C 6.453125 -34.632812 5.394531 -33.394531 4.46875 -31.875 C 4.113281 -31.34375 3.988281 -30.722656 4.09375 -30.015625 L 4.25 -29.09375 L 4.5 -28.171875 C 5.882812 -22.609375 6.90625 -17.769531 7.5625 -13.65625 C 7.738281 -12.5 7.992188 -11.210938 8.328125 -9.796875 L 9.265625 -5.921875 L 9.5 -4.921875 L 9.6875 -3.90625 C 9.800781 -3.144531 9.765625 -2.546875 9.578125 -2.109375 L 9.28125 -1.203125 L 9.046875 -0.3125 C 8.835938 0.40625 8.5625 0.945312 8.21875 1.3125 C 7.394531 2.21875 6.222656 2.359375 4.703125 1.734375 C 4.460938 1.628906 4.117188 1.519531 3.671875 1.40625 L 2.640625 1.125 C 1.335938 0.6875 0.703125 -0.179688 0.734375 -1.484375 C 0.722656 -1.828125 0.660156 -2.195312 0.546875 -2.59375 L 0.15625 -3.65625 C -0.175781 -4.5 -0.484375 -5.566406 -0.765625 -6.859375 L -1.125 -8.515625 L -1.46875 -10.125 C -2.382812 -13.832031 -3.269531 -18.226562 -4.125 -23.3125 L -5.15625 -29.921875 L -6.15625 -36.546875 L -6.703125 -39.703125 L -7.328125 -42.828125 C -7.847656 -45.410156 -8.191406 -47.5 -8.359375 -49.09375 C -8.460938 -49.820312 -8.148438 -50.53125 -7.421875 -51.21875 C -6.679688 -51.945312 -5.890625 -52.300781 -5.046875 -52.28125 C -3.773438 -52.25 -2.910156 -52.050781 -2.453125 -51.6875 C -2.085938 -51.40625 -1.597656 -50.628906 -0.984375 -49.359375 C -0.0664062 -47.441406 0.738281 -45 1.4375 -42.03125 L 2.28125 -38.234375 C 2.625 -36.734375 2.925781 -35.488281 3.1875 -34.5 L 3.234375 -34.265625 L 3.296875 -34.03125 C 3.367188 -33.851562 3.4375 -33.75 3.5 -33.71875 C 3.632812 -33.675781 3.765625 -33.722656 3.890625 -33.859375 L 4.03125 -34.046875 L 4.140625 -34.234375 C 6.296875 -36.816406 8.976562 -37.617188 12.1875 -36.640625 C 12.539062 -36.515625 12.804688 -36.332031 12.984375 -36.09375 C 14.148438 -34.375 15.238281 -32.707031 16.25 -31.09375 C 18.832031 -27.070312 20.53125 -20.953125 21.34375 -12.734375 L 21.515625 -11.578125 L 21.609375 -10.390625 C 21.628906 -9.484375 21.460938 -8.6875 21.109375 -8 C 20.898438 -7.550781 20.535156 -7.222656 20.015625 -7.015625 L 19.359375 -6.78125 L 18.765625 -6.515625 C 18.503906 -6.398438 18.242188 -6.523438 17.984375 -6.890625 L 17.65625 -7.4375 L 17.421875 -7.984375 C 17.015625 -9.066406 16.640625 -10.453125 16.296875 -12.140625 L 15.890625 -14.265625 L 15.4375 -16.390625 L 15.28125 -17.078125 L 15.203125 -17.734375 Z M 14.453125 -21.34375 "/></g></g></g><g fill="#000000" fill-opacity="1"><g transform="translate(170.195321, 110.593246)"><g><path d="M 14.25 -22.234375 C 13.800781 -24.378906 12.578125 -25.851562 10.578125 -26.65625 C 9.609375 -27.050781 8.601562 -26.9375 7.5625 -26.3125 C 6.507812 -25.664062 6.015625 -24.828125 6.078125 -23.796875 C 6.109375 -23.253906 6.113281 -22.625 6.09375 -21.90625 L 5.984375 -20 C 5.910156 -18.40625 5.929688 -17.15625 6.046875 -16.25 C 6.273438 -14.46875 6.914062 -12.898438 7.96875 -11.546875 C 9.070312 -10.160156 10.410156 -9.253906 11.984375 -8.828125 C 13.160156 -8.472656 13.929688 -8.832031 14.296875 -9.90625 C 15.429688 -13.332031 15.582031 -16.703125 14.75 -20.015625 Z M -2.65625 -14.640625 C -3.550781 -19.378906 -2.992188 -23.507812 -0.984375 -27.03125 C -0.0351562 -28.675781 1.269531 -29.921875 2.9375 -30.765625 C 4.707031 -31.640625 6.554688 -31.882812 8.484375 -31.5 C 11.628906 -30.851562 14.144531 -28.785156 16.03125 -25.296875 C 16.53125 -24.410156 16.921875 -23.296875 17.203125 -21.953125 L 17.546875 -20.21875 L 17.8125 -18.40625 C 18.726562 -12.820312 18.4375 -8.515625 16.9375 -5.484375 C 15.738281 -3.035156 13.890625 -2.019531 11.390625 -2.4375 L 9.515625 -2.671875 L 7.671875 -2.90625 C 6.210938 -3.125 5.003906 -3.535156 4.046875 -4.140625 C 0.523438 -6.335938 -1.707031 -9.835938 -2.65625 -14.640625 Z M -2.65625 -14.640625 "/></g></g></g><g fill="#000000" fill-opacity="1"><g transform="translate(196.066829, 105.896362)"><g><path d="M 13.78125 -19.953125 C 13.1875 -22.285156 11.976562 -24.550781 10.15625 -26.75 C 9.894531 -27.0625 9.566406 -27.25 9.171875 -27.3125 L 3.328125 -28.046875 C 2.941406 -28.097656 2.707031 -28.015625 2.625 -27.796875 C 2.53125 -27.609375 2.59375 -27.410156 2.8125 -27.203125 C 3.207031 -26.859375 3.503906 -26.425781 3.703125 -25.90625 C 3.859375 -25.550781 3.988281 -25.070312 4.09375 -24.46875 C 4.21875 -23.894531 4.414062 -23.285156 4.6875 -22.640625 L 5.453125 -20.90625 C 6.171875 -19.382812 6.613281 -18.195312 6.78125 -17.34375 L 7.359375 -14.796875 L 8.078125 -12.25 C 8.660156 -10.09375 9.039062 -8.382812 9.21875 -7.125 C 9.3125 -6.457031 9.648438 -6.359375 10.234375 -6.828125 C 12.515625 -8.742188 13.765625 -10.859375 13.984375 -13.171875 C 14.171875 -15.460938 14.101562 -17.722656 13.78125 -19.953125 Z M 10.71875 -1.390625 C 10.820312 -0.359375 11.160156 0.960938 11.734375 2.578125 L 12.359375 4.453125 C 12.566406 5.140625 12.707031 5.757812 12.78125 6.3125 C 13.113281 8.71875 13.390625 10.578125 13.609375 11.890625 C 13.898438 13.546875 13.40625 14.875 12.125 15.875 C 11.789062 16.101562 11.476562 16.4375 11.1875 16.875 L 10.796875 17.390625 L 10.421875 18 C 9.773438 19 9.085938 19.132812 8.359375 18.40625 C 8.109375 18.144531 7.785156 18.015625 7.390625 18.015625 C 5.765625 18.015625 4.738281 17.101562 4.3125 15.28125 L 3.796875 13.46875 L 3.21875 11.703125 C 2.675781 10.117188 2.316406 8.914062 2.140625 8.09375 C 0.585938 1.445312 -0.632812 -4.210938 -1.53125 -8.890625 C -3 -16.648438 -3.945312 -23.09375 -4.375 -28.21875 C -4.507812 -29.757812 -3.945312 -30.785156 -2.6875 -31.296875 C -1.382812 -31.796875 -0.363281 -31.351562 0.375 -29.96875 C 0.601562 -29.488281 0.988281 -29.265625 1.53125 -29.296875 C 1.726562 -29.296875 1.957031 -29.328125 2.21875 -29.390625 L 2.875 -29.578125 C 7.300781 -30.878906 11.539062 -29.5625 15.59375 -25.625 C 17.738281 -23.570312 19.296875 -20.898438 20.265625 -17.609375 C 20.984375 -15.191406 20.503906 -12.5625 18.828125 -9.71875 C 17.128906 -6.8125 15.007812 -5.09375 12.46875 -4.5625 C 10.519531 -4.144531 9.9375 -3.085938 10.71875 -1.390625 Z M 10.71875 -1.390625 "/></g></g></g><g fill="#000000" fill-opacity="1"><g transform="translate(224.528151, 100.729306)"><g><path d="M 14.6875 -24.6875 C 15.957031 -18.382812 16.710938 -12.617188 16.953125 -7.390625 L 16.96875 -6.796875 L 16.953125 -6.265625 C 16.921875 -5.859375 16.769531 -5.484375 16.5 -5.140625 C 16.289062 -4.867188 16.285156 -4.710938 16.484375 -4.671875 L 16.765625 -4.6875 L 17.0625 -4.75 L 18.9375 -4.96875 L 20.765625 -5.234375 L 21.0625 -5.25 L 21.328125 -5.234375 C 21.523438 -5.171875 21.644531 -5.023438 21.6875 -4.796875 C 21.78125 -4.296875 21.554688 -3.96875 21.015625 -3.8125 L 19.8125 -3.453125 L 18.609375 -3.15625 C 17.617188 -2.894531 16.8125 -2.632812 16.1875 -2.375 C 15.050781 -1.875 13.320312 -1.5625 11 -1.4375 L 8.34375 -1.234375 C 7.375 -1.117188 6.515625 -0.894531 5.765625 -0.5625 C 5.578125 -0.507812 5.421875 -0.53125 5.296875 -0.625 L 5.125 -0.8125 L 4.96875 -1.046875 C 4.726562 -1.535156 4.863281 -1.898438 5.375 -2.140625 C 6.414062 -2.578125 7.257812 -2.863281 7.90625 -3 C 8.789062 -3.21875 9.15625 -3.773438 9 -4.671875 C 7.28125 -14.265625 3.785156 -28.203125 -1.484375 -46.484375 C -1.753906 -47.460938 -2.335938 -47.820312 -3.234375 -47.5625 L -4.359375 -47.359375 L -5.46875 -47.265625 C -6.382812 -47.140625 -7.113281 -46.953125 -7.65625 -46.703125 C -7.925781 -46.578125 -8.160156 -46.613281 -8.359375 -46.8125 C -8.460938 -46.894531 -8.503906 -47.015625 -8.484375 -47.171875 L -8.328125 -47.515625 C -8.066406 -48.117188 -7.5625 -48.476562 -6.8125 -48.59375 C -5 -48.851562 -2.550781 -49.46875 0.53125 -50.4375 L 4.140625 -51.578125 C 5.515625 -51.972656 6.738281 -52.269531 7.8125 -52.46875 L 8.734375 -52.640625 C 9.109375 -52.703125 9.421875 -52.71875 9.671875 -52.6875 C 10.335938 -52.695312 10.765625 -52.453125 10.953125 -51.953125 C 11.078125 -51.554688 10.859375 -51.195312 10.296875 -50.875 L 9.53125 -50.5 L 8.765625 -50.171875 C 8.617188 -50.066406 8.378906 -49.972656 8.046875 -49.890625 L 7.296875 -49.65625 L 7.03125 -49.515625 L 6.84375 -49.3125 C 6.71875 -49.132812 6.769531 -48.960938 7 -48.796875 C 7.644531 -48.398438 8.101562 -47.800781 8.375 -47 L 8.6875 -45.890625 L 8.9375 -44.84375 L 10.546875 -39.875 L 12.09375 -34.828125 C 13.257812 -30.992188 14.125 -27.613281 14.6875 -24.6875 Z M 14.6875 -24.6875 "/></g></g></g><g fill="#000000" fill-opacity="1"><g transform="translate(251.707913, 95.794913)"><g><path d="M 25.5 -12.796875 C 25.800781 -9.148438 25.78125 -5.8125 25.4375 -2.78125 L 25.375 -2.5 L 25.28125 -2.1875 C 25.269531 -1.96875 25.367188 -1.828125 25.578125 -1.765625 C 25.742188 -1.722656 25.867188 -1.796875 25.953125 -1.984375 L 26.0625 -2.265625 L 26.15625 -2.484375 L 26.34375 -2.71875 L 26.5625 -2.921875 L 26.640625 -2.59375 L 26.671875 -2.34375 C 26.234375 -0.351562 25.296875 1.304688 23.859375 2.640625 C 22.285156 4.109375 20.53125 4.785156 18.59375 4.671875 C 10.75 4.242188 5.734375 -0.0703125 3.546875 -8.28125 C 1.554688 -15.78125 0.0664062 -23.101562 -0.921875 -30.25 C -1.003906 -30.9375 -1.472656 -31.164062 -2.328125 -30.9375 L -4.09375 -30.4375 L -5.859375 -29.96875 C -7.222656 -29.59375 -8.410156 -29.34375 -9.421875 -29.21875 L -9.8125 -29.171875 L -10.265625 -29.140625 C -10.585938 -29.148438 -10.78125 -29.273438 -10.84375 -29.515625 C -10.894531 -29.734375 -10.796875 -29.929688 -10.546875 -30.109375 L -10.171875 -30.296875 L -9.8125 -30.484375 C -7 -31.734375 -4.59375 -32.601562 -2.59375 -33.09375 C -1.632812 -33.320312 -1.21875 -33.921875 -1.34375 -34.890625 C -1.96875 -39.910156 -2.335938 -44.289062 -2.453125 -48.03125 L -2.53125 -48.796875 L -2.625 -49.609375 C -2.65625 -50.203125 -2.429688 -50.535156 -1.953125 -50.609375 L -0.703125 -50.859375 C -0.160156 -50.960938 0.285156 -51.015625 0.640625 -51.015625 C 1.640625 -51.054688 2.457031 -50.710938 3.09375 -49.984375 C 3.976562 -48.992188 4.722656 -47.703125 5.328125 -46.109375 L 6.046875 -44.015625 L 6.703125 -41.875 C 7.335938 -39.894531 7.910156 -37.972656 8.421875 -36.109375 C 8.585938 -35.515625 9.039062 -35.285156 9.78125 -35.421875 L 11.875 -35.8125 L 13.96875 -36.21875 C 15.601562 -36.46875 17.035156 -36.554688 18.265625 -36.484375 L 18.546875 -36.484375 L 18.859375 -36.515625 C 19.097656 -36.515625 19.289062 -36.425781 19.4375 -36.25 L 18.890625 -35.921875 L 18.34375 -35.65625 L 10.59375 -33.390625 C 9.789062 -33.148438 9.453125 -32.664062 9.578125 -31.9375 L 11.8125 -19.1875 L 14.109375 -6.484375 C 14.285156 -5.546875 14.585938 -4.421875 15.015625 -3.109375 L 15.578125 -1.40625 L 16.140625 0.25 L 16.28125 0.59375 L 16.453125 0.9375 C 17.398438 2.613281 18.363281 2.675781 19.34375 1.125 C 22.4375 -3.75 23.992188 -8.90625 24.015625 -14.34375 L 23.96875 -14.71875 L 23.953125 -15.09375 C 23.972656 -15.382812 24.097656 -15.550781 24.328125 -15.59375 C 24.640625 -15.632812 24.8125 -15.519531 24.84375 -15.25 L 24.8125 -14.875 L 24.875 -14.53125 L 25.234375 -13.609375 Z M 25.5 -12.796875 "/></g></g></g></svg>